<svg width="100" height="21" viewBox="0 0 100 21" fill="none" xmlns="http://www.w3.org/2000/svg">
<g clip-path="url(#clip0_1679_1626)">
<path fill-rule="evenodd" clip-rule="evenodd" d="M8.52347 5.28077C8.18117 5.18809 7.82039 5.18809 7.47809 5.28077C7.12173 5.37726 6.77613 5.63005 5.7906 6.39657L4.05726 7.74472C3.42297 8.23806 3.21001 8.41103 3.05947 8.61456C2.91481 8.81015 2.80705 9.03049 2.74148 9.26476C2.67324 9.50853 2.66745 9.78283 2.66745 10.5864V14.9996C2.66745 15.5133 2.67468 15.6224 2.69615 15.6932C2.76079 15.9062 2.92752 16.073 3.14059 16.1376C3.21137 16.1591 3.32042 16.1663 3.83411 16.1663H4.25078C4.33608 16.1663 4.3546 16.1661 4.36683 16.1655C4.7093 16.1487 4.98315 15.8748 4.99998 15.5323C5.00058 15.5201 5.00078 15.5016 5.00078 15.4163V13.4996C5.00078 11.8428 6.34393 10.4996 8.00078 10.4996C9.65763 10.4996 11.0008 11.8428 11.0008 13.4996V15.4163C11.0008 15.5016 11.001 15.5201 11.0016 15.5323C11.0184 15.8748 11.2923 16.1487 11.6347 16.1655C11.647 16.1661 11.6655 16.1663 11.7508 16.1663H12.1674C12.6811 16.1663 12.7902 16.1591 12.861 16.1376C13.074 16.073 13.2408 15.9062 13.3054 15.6932C13.3269 15.6224 13.3341 15.5133 13.3341 14.9996V10.5864C13.3341 9.78283 13.3283 9.50853 13.2601 9.26476C13.1945 9.03049 13.0867 8.81015 12.9421 8.61456C12.7916 8.41103 12.5786 8.23806 11.9443 7.74472L10.211 6.39657C9.22543 5.63005 8.87984 5.37726 8.52347 5.28077ZM7.12962 3.99378C7.70013 3.83931 8.30144 3.83931 8.87194 3.99378C9.52079 4.16946 10.0901 4.61272 10.9161 5.25581C10.9534 5.28484 10.9912 5.31427 11.0296 5.3441L12.7629 6.69225C12.7868 6.71089 12.8105 6.72926 12.8338 6.74739C13.37 7.16417 13.741 7.45248 14.0141 7.8217C14.2552 8.14768 14.4348 8.51491 14.5441 8.90536C14.6679 9.34759 14.6677 9.81741 14.6675 10.4966C14.6675 10.5261 14.6674 10.556 14.6674 10.5864V14.9996C14.6674 15.0279 14.6675 15.0558 14.6675 15.0835C14.668 15.4644 14.6684 15.7933 14.5813 16.0802C14.3874 16.7194 13.8872 17.2196 13.248 17.4135C12.9611 17.5005 12.6322 17.5002 12.2513 17.4997C12.2236 17.4997 12.1957 17.4996 12.1674 17.4996L11.7368 17.4996C11.6734 17.4996 11.6189 17.4997 11.5693 17.4972C10.5419 17.4468 9.72033 16.6252 9.66986 15.5978C9.66742 15.5482 9.66743 15.4937 9.66745 15.4303L9.66745 13.4996C9.66745 12.5792 8.92126 11.833 8.00078 11.833C7.08031 11.833 6.33411 12.5792 6.33411 13.4996L6.33412 15.4303C6.33413 15.4937 6.33414 15.5482 6.33171 15.5978C6.28123 16.6252 5.45966 17.4468 4.43225 17.4972C4.38269 17.4997 4.32818 17.4996 4.26475 17.4996L3.83411 17.4996C3.80588 17.4996 3.77792 17.4997 3.75023 17.4997C3.36938 17.5002 3.04044 17.5005 2.75355 17.4135C2.11434 17.2196 1.61413 16.7194 1.42023 16.0802C1.3332 15.7933 1.3336 15.4644 1.33405 15.0835C1.33408 15.0558 1.33411 15.0279 1.33411 14.9996V10.5864C1.33411 10.556 1.3341 10.5261 1.33409 10.4966C1.33387 9.81741 1.33371 9.34759 1.45749 8.90536C1.56678 8.51491 1.74639 8.14768 1.98749 7.8217C2.26057 7.45248 2.63153 7.16416 3.16775 6.74739C3.19108 6.72926 3.21472 6.71089 3.23867 6.69225L4.97201 5.3441C5.01037 5.31427 5.04817 5.28483 5.08545 5.25581C5.91144 4.61272 6.48077 4.16946 7.12962 3.99378Z" fill="white"/>
<g opacity="0.6">
<path fill-rule="evenodd" clip-rule="evenodd" d="M29.5292 5.36225C29.7896 5.1019 30.2117 5.1019 30.4721 5.36225L35.1387 10.0289C35.3991 10.2893 35.3991 10.7114 35.1387 10.9717L30.4721 15.6384C30.2117 15.8987 29.7896 15.8987 29.5292 15.6384C29.2689 15.378 29.2689 14.9559 29.5292 14.6956L33.7245 10.5003L29.5292 6.30506C29.2689 6.04471 29.2689 5.6226 29.5292 5.36225Z" fill="white"/>
</g>
<path opacity="0.6" d="M54.356 7.537C54.314 7.607 54.2697 7.66067 54.223 7.698C54.1763 7.73067 54.1157 7.747 54.041 7.747C53.9617 7.747 53.8683 7.70733 53.761 7.628C53.6583 7.54867 53.5253 7.46233 53.362 7.369C53.2033 7.271 53.0097 7.18233 52.781 7.103C52.557 7.02367 52.284 6.984 51.962 6.984C51.6587 6.984 51.3903 7.026 51.157 7.11C50.9237 7.18933 50.7277 7.299 50.569 7.439C50.415 7.579 50.2983 7.74467 50.219 7.936C50.1397 8.12267 50.1 8.32567 50.1 8.545C50.1 8.825 50.1677 9.05833 50.303 9.245C50.443 9.427 50.625 9.58333 50.849 9.714C51.0777 9.84467 51.3343 9.959 51.619 10.057C51.9083 10.1503 52.2023 10.2483 52.501 10.351C52.8043 10.4537 53.0983 10.5703 53.383 10.701C53.6723 10.827 53.929 10.988 54.153 11.184C54.3817 11.38 54.5637 11.6203 54.699 11.905C54.839 12.1897 54.909 12.5397 54.909 12.955C54.909 13.3937 54.8343 13.8067 54.685 14.194C54.5357 14.5767 54.3163 14.9103 54.027 15.195C53.7423 15.4797 53.39 15.7037 52.97 15.867C52.5547 16.0303 52.081 16.112 51.549 16.112C50.9003 16.112 50.3077 15.9953 49.771 15.762C49.239 15.524 48.784 15.2043 48.406 14.803L48.798 14.159C48.8353 14.1077 48.8797 14.0657 48.931 14.033C48.987 13.9957 49.0477 13.977 49.113 13.977C49.211 13.977 49.323 14.0307 49.449 14.138C49.575 14.2407 49.7313 14.355 49.918 14.481C50.1093 14.607 50.338 14.7237 50.604 14.831C50.8747 14.9337 51.2037 14.985 51.591 14.985C51.913 14.985 52.2 14.9407 52.452 14.852C52.704 14.7633 52.9163 14.6397 53.089 14.481C53.2663 14.3177 53.4017 14.124 53.495 13.9C53.5883 13.676 53.635 13.4263 53.635 13.151C53.635 12.8477 53.565 12.6003 53.425 12.409C53.2897 12.213 53.11 12.0497 52.886 11.919C52.662 11.7883 52.4053 11.6787 52.116 11.59C51.8313 11.4967 51.5373 11.4033 51.234 11.31C50.9353 11.212 50.6413 11.1 50.352 10.974C50.0673 10.848 49.813 10.6847 49.589 10.484C49.365 10.2833 49.183 10.0337 49.043 9.735C48.9077 9.43167 48.84 9.05833 48.84 8.615C48.84 8.26033 48.9077 7.91733 49.043 7.586C49.183 7.25467 49.3837 6.96067 49.645 6.704C49.9063 6.44733 50.2283 6.242 50.611 6.088C50.9983 5.934 51.4417 5.857 51.941 5.857C52.501 5.857 53.012 5.94567 53.474 6.123C53.936 6.30033 54.3397 6.557 54.685 6.893L54.356 7.537ZM59.2528 8.797C59.6775 8.797 60.0695 8.86933 60.4288 9.014C60.7882 9.154 61.0985 9.35933 61.3598 9.63C61.6212 9.896 61.8242 10.2273 61.9688 10.624C62.1182 11.016 62.1928 11.464 62.1928 11.968C62.1928 12.164 62.1718 12.2947 62.1298 12.36C62.0878 12.4253 62.0085 12.458 61.8918 12.458H57.1738C57.1832 12.906 57.2438 13.2957 57.3558 13.627C57.4678 13.9583 57.6218 14.236 57.8178 14.46C58.0138 14.6793 58.2472 14.845 58.5178 14.957C58.7885 15.0643 59.0918 15.118 59.4278 15.118C59.7405 15.118 60.0088 15.083 60.2328 15.013C60.4615 14.9383 60.6575 14.859 60.8208 14.775C60.9842 14.691 61.1195 14.614 61.2268 14.544C61.3388 14.4693 61.4345 14.432 61.5138 14.432C61.6165 14.432 61.6958 14.4717 61.7518 14.551L62.1018 15.006C61.9478 15.1927 61.7635 15.356 61.5488 15.496C61.3342 15.6313 61.1032 15.7433 60.8558 15.832C60.6132 15.9207 60.3612 15.986 60.0998 16.028C59.8385 16.0747 59.5795 16.098 59.3228 16.098C58.8328 16.098 58.3802 16.0163 57.9648 15.853C57.5542 15.685 57.1972 15.4423 56.8938 15.125C56.5952 14.803 56.3618 14.4063 56.1938 13.935C56.0258 13.4637 55.9418 12.9223 55.9418 12.311C55.9418 11.8163 56.0165 11.3543 56.1658 10.925C56.3198 10.4957 56.5392 10.1247 56.8238 9.812C57.1085 9.49467 57.4562 9.24733 57.8668 9.07C58.2775 8.888 58.7395 8.797 59.2528 8.797ZM59.2808 9.714C58.6788 9.714 58.2052 9.889 57.8598 10.239C57.5145 10.5843 57.2998 11.065 57.2158 11.681H61.0728C61.0728 11.3917 61.0332 11.128 60.9538 10.89C60.8745 10.6473 60.7578 10.4397 60.6038 10.267C60.4498 10.0897 60.2608 9.95433 60.0368 9.861C59.8175 9.763 59.5655 9.714 59.2808 9.714ZM63.7876 16V8.909H64.5016C64.637 8.909 64.7303 8.93467 64.7816 8.986C64.833 9.03733 64.868 9.126 64.8866 9.252L64.9706 10.358C65.2133 9.86333 65.512 9.47833 65.8666 9.203C66.226 8.923 66.646 8.783 67.1266 8.783C67.3226 8.783 67.5 8.80633 67.6586 8.853C67.8173 8.895 67.9643 8.95567 68.0996 9.035L67.9386 9.966C67.906 10.0827 67.8336 10.141 67.7216 10.141C67.6563 10.141 67.556 10.12 67.4206 10.078C67.2853 10.0313 67.0963 10.008 66.8536 10.008C66.4196 10.008 66.0556 10.134 65.7616 10.386C65.4723 10.638 65.2296 11.0043 65.0336 11.485V16H63.7876ZM68.5381 8.909H69.5601C69.6581 8.909 69.7398 8.93467 69.8051 8.986C69.8704 9.03733 69.9171 9.098 69.9451 9.168L71.7441 13.732C71.8094 13.9 71.8608 14.068 71.8981 14.236C71.9354 14.404 71.9704 14.5697 72.0031 14.733C72.0404 14.5697 72.0801 14.404 72.1221 14.236C72.1641 14.068 72.2178 13.9 72.2831 13.732L74.1031 9.168C74.1311 9.09333 74.1754 9.03267 74.2361 8.986C74.3014 8.93467 74.3808 8.909 74.4741 8.909H75.4471L72.5561 16H71.4291L68.5381 8.909ZM77.9842 8.909V16H76.7382V8.909H77.9842ZM78.2642 6.683C78.2642 6.80433 78.2385 6.91867 78.1872 7.026C78.1405 7.12867 78.0752 7.222 77.9912 7.306C77.9118 7.38533 77.8185 7.44833 77.7112 7.495C77.6038 7.54167 77.4895 7.565 77.3682 7.565C77.2468 7.565 77.1325 7.54167 77.0252 7.495C76.9225 7.44833 76.8292 7.38533 76.7452 7.306C76.6658 7.222 76.6028 7.12867 76.5562 7.026C76.5095 6.91867 76.4862 6.80433 76.4862 6.683C76.4862 6.56167 76.5095 6.44733 76.5562 6.34C76.6028 6.228 76.6658 6.13233 76.7452 6.053C76.8292 5.969 76.9225 5.90367 77.0252 5.857C77.1325 5.81033 77.2468 5.787 77.3682 5.787C77.4895 5.787 77.6038 5.81033 77.7112 5.857C77.8185 5.90367 77.9118 5.969 77.9912 6.053C78.0752 6.13233 78.1405 6.228 78.1872 6.34C78.2385 6.44733 78.2642 6.56167 78.2642 6.683ZM85.0172 10.169C84.9799 10.2203 84.9425 10.26 84.9052 10.288C84.8679 10.316 84.8142 10.33 84.7442 10.33C84.6742 10.33 84.5972 10.302 84.5132 10.246C84.4339 10.1853 84.3312 10.12 84.2052 10.05C84.0792 9.98 83.9252 9.917 83.7432 9.861C83.5659 9.80033 83.3465 9.77 83.0852 9.77C82.7399 9.77 82.4342 9.833 82.1682 9.959C81.9022 10.0803 81.6782 10.2577 81.4962 10.491C81.3189 10.7243 81.1835 11.0067 81.0902 11.338C81.0015 11.6693 80.9572 12.0403 80.9572 12.451C80.9572 12.8803 81.0062 13.263 81.1042 13.599C81.2022 13.9303 81.3399 14.2103 81.5172 14.439C81.6945 14.663 81.9092 14.8357 82.1612 14.957C82.4179 15.0737 82.7049 15.132 83.0222 15.132C83.3255 15.132 83.5752 15.097 83.7712 15.027C83.9672 14.9523 84.1305 14.8707 84.2612 14.782C84.3919 14.6933 84.4992 14.614 84.5832 14.544C84.6672 14.4693 84.7512 14.432 84.8352 14.432C84.9425 14.432 85.0219 14.4717 85.0732 14.551L85.4232 15.006C85.1152 15.384 84.7302 15.6617 84.2682 15.839C83.8062 16.0117 83.3185 16.098 82.8052 16.098C82.3619 16.098 81.9489 16.0163 81.5662 15.853C81.1882 15.6897 80.8592 15.454 80.5792 15.146C80.2992 14.8333 80.0775 14.4507 79.9142 13.998C79.7555 13.5453 79.6762 13.0297 79.6762 12.451C79.6762 11.9237 79.7485 11.436 79.8932 10.988C80.0425 10.54 80.2572 10.155 80.5372 9.833C80.8219 9.50633 81.1719 9.252 81.5872 9.07C82.0025 8.888 82.4785 8.797 83.0152 8.797C83.5099 8.797 83.9485 8.87867 84.3312 9.042C84.7139 9.20067 85.0522 9.427 85.3462 9.721L85.0172 10.169ZM89.5224 8.797C89.947 8.797 90.339 8.86933 90.6984 9.014C91.0577 9.154 91.368 9.35933 91.6294 9.63C91.8907 9.896 92.0937 10.2273 92.2384 10.624C92.3877 11.016 92.4624 11.464 92.4624 11.968C92.4624 12.164 92.4414 12.2947 92.3994 12.36C92.3574 12.4253 92.278 12.458 92.1614 12.458H87.4434C87.4527 12.906 87.5134 13.2957 87.6254 13.627C87.7374 13.9583 87.8914 14.236 88.0874 14.46C88.2834 14.6793 88.5167 14.845 88.7874 14.957C89.058 15.0643 89.3614 15.118 89.6974 15.118C90.01 15.118 90.2784 15.083 90.5024 15.013C90.731 14.9383 90.927 14.859 91.0904 14.775C91.2537 14.691 91.389 14.614 91.4964 14.544C91.6084 14.4693 91.704 14.432 91.7834 14.432C91.886 14.432 91.9654 14.4717 92.0214 14.551L92.3714 15.006C92.2174 15.1927 92.033 15.356 91.8184 15.496C91.6037 15.6313 91.3727 15.7433 91.1254 15.832C90.8827 15.9207 90.6307 15.986 90.3694 16.028C90.108 16.0747 89.849 16.098 89.5924 16.098C89.1024 16.098 88.6497 16.0163 88.2344 15.853C87.8237 15.685 87.4667 15.4423 87.1634 15.125C86.8647 14.803 86.6314 14.4063 86.4634 13.935C86.2954 13.4637 86.2114 12.9223 86.2114 12.311C86.2114 11.8163 86.286 11.3543 86.4354 10.925C86.5894 10.4957 86.8087 10.1247 87.0934 9.812C87.378 9.49467 87.7257 9.24733 88.1364 9.07C88.547 8.888 89.009 8.797 89.5224 8.797ZM89.5504 9.714C88.9484 9.714 88.4747 9.889 88.1294 10.239C87.784 10.5843 87.5694 11.065 87.4854 11.681H91.3424C91.3424 11.3917 91.3027 11.128 91.2234 10.89C91.144 10.6473 91.0274 10.4397 90.8734 10.267C90.7194 10.0897 90.5304 9.95433 90.3064 9.861C90.087 9.763 89.835 9.714 89.5504 9.714ZM98.1172 10.078C98.0612 10.1807 97.9748 10.232 97.8582 10.232C97.7882 10.232 97.7088 10.2063 97.6202 10.155C97.5315 10.1037 97.4218 10.0477 97.2912 9.987C97.1652 9.92167 97.0135 9.86333 96.8362 9.812C96.6588 9.756 96.4488 9.728 96.2062 9.728C95.9962 9.728 95.8072 9.756 95.6392 9.812C95.4712 9.86333 95.3265 9.93567 95.2052 10.029C95.0885 10.1223 94.9975 10.232 94.9322 10.358C94.8715 10.4793 94.8412 10.6123 94.8412 10.757C94.8412 10.939 94.8925 11.0907 94.9952 11.212C95.1025 11.3333 95.2425 11.4383 95.4152 11.527C95.5878 11.6157 95.7838 11.695 96.0032 11.765C96.2225 11.8303 96.4465 11.9027 96.6752 11.982C96.9085 12.0567 97.1348 12.1407 97.3542 12.234C97.5735 12.3273 97.7695 12.444 97.9422 12.584C98.1148 12.724 98.2525 12.8967 98.3552 13.102C98.4625 13.3027 98.5162 13.5453 98.5162 13.83C98.5162 14.1567 98.4578 14.46 98.3412 14.74C98.2245 15.0153 98.0518 15.2557 97.8232 15.461C97.5945 15.6617 97.3145 15.8203 96.9832 15.937C96.6518 16.0537 96.2692 16.112 95.8352 16.112C95.3405 16.112 94.8925 16.0327 94.4912 15.874C94.0898 15.7107 93.7492 15.503 93.4692 15.251L93.7632 14.775C93.8005 14.7143 93.8448 14.6677 93.8962 14.635C93.9475 14.6023 94.0152 14.586 94.0992 14.586C94.1832 14.586 94.2718 14.6187 94.3652 14.684C94.4585 14.7493 94.5705 14.8217 94.7012 14.901C94.8365 14.9803 94.9975 15.0527 95.1842 15.118C95.3755 15.1833 95.6135 15.216 95.8982 15.216C96.1408 15.216 96.3532 15.1857 96.5352 15.125C96.7172 15.0597 96.8688 14.9733 96.9902 14.866C97.1115 14.7587 97.2002 14.635 97.2562 14.495C97.3168 14.355 97.3472 14.2057 97.3472 14.047C97.3472 13.851 97.2935 13.69 97.1862 13.564C97.0835 13.4333 96.9458 13.3237 96.7732 13.235C96.6005 13.1417 96.4022 13.0623 96.1782 12.997C95.9588 12.927 95.7325 12.8547 95.4992 12.78C95.2705 12.7053 95.0442 12.6213 94.8202 12.528C94.6008 12.43 94.4048 12.3087 94.2322 12.164C94.0595 12.0193 93.9195 11.842 93.8122 11.632C93.7095 11.4173 93.6582 11.1583 93.6582 10.855C93.6582 10.5843 93.7142 10.3253 93.8262 10.078C93.9382 9.826 94.1015 9.60667 94.3162 9.42C94.5308 9.22867 94.7945 9.077 95.1072 8.965C95.4198 8.853 95.7768 8.797 96.1782 8.797C96.6448 8.797 97.0625 8.87167 97.4312 9.021C97.8045 9.16567 98.1265 9.36633 98.3972 9.623L98.1172 10.078Z" fill="white"/>
</g>
<defs>
<clipPath id="clip0_1679_1626">
<rect width="100" height="21" fill="white"/>
</clipPath>
</defs>
</svg>
