<svg width="14" height="14" viewBox="0 0 14 14" fill="none" xmlns="http://www.w3.org/2000/svg">
<path fill-rule="evenodd" clip-rule="evenodd" d="M7.18949 1.40284C6.84719 1.31016 6.4864 1.31016 6.1441 1.40284C5.78774 1.49933 5.44214 1.75212 4.45661 2.51864L2.72328 3.86679C2.08898 4.36013 1.87602 4.5331 1.72549 4.73663C1.58083 4.93222 1.47307 5.15256 1.40749 5.38683C1.33925 5.6306 1.33346 5.9049 1.33346 6.70846V11.1217C1.33346 11.6354 1.3407 11.7444 1.36217 11.8152C1.4268 12.0283 1.59354 12.195 1.80661 12.2597C1.87739 12.2811 1.98644 12.2884 2.50013 12.2884H2.9168C3.00209 12.2884 3.02062 12.2882 3.03284 12.2876C3.37531 12.2707 3.64917 11.9969 3.66599 11.6544C3.66659 11.6422 3.6668 11.6237 3.6668 11.5384V9.6217C3.6668 7.96485 5.00994 6.6217 6.6668 6.6217C8.32365 6.6217 9.6668 7.96485 9.6668 9.6217V11.5384C9.6668 11.6237 9.667 11.6422 9.6676 11.6544C9.68442 11.9969 9.95828 12.2707 10.3008 12.2876C10.313 12.2882 10.3315 12.2884 10.4168 12.2884H10.8335C11.3472 12.2884 11.4562 12.2811 11.527 12.2597C11.7401 12.195 11.9068 12.0283 11.9714 11.8152C11.9929 11.7444 12.0001 11.6354 12.0001 11.1217V6.70846C12.0001 5.9049 11.9943 5.6306 11.9261 5.38683C11.8605 5.15256 11.7528 4.93222 11.6081 4.73663C11.4576 4.5331 11.2446 4.36013 10.6103 3.86679L8.87698 2.51864C7.89145 1.75212 7.54585 1.49933 7.18949 1.40284ZM5.79564 0.11585C6.36614 -0.0386167 6.96745 -0.0386167 7.53795 0.11585C8.18681 0.291533 8.75614 0.734793 9.58213 1.37788C9.61941 1.40691 9.65721 1.43634 9.69557 1.46617L11.4289 2.81432C11.4529 2.83296 11.4765 2.85133 11.4998 2.86946C12.0361 3.28624 12.407 3.57456 12.6801 3.94377C12.9212 4.26975 13.1008 4.63698 13.2101 5.02743C13.3339 5.46966 13.3337 5.93948 13.3335 6.61863C13.3335 6.64817 13.3335 6.67811 13.3335 6.70846V11.1217C13.3335 11.1499 13.3335 11.1779 13.3335 11.2056C13.334 11.5864 13.3344 11.9154 13.2473 12.2023C13.0534 12.8415 12.5532 13.3417 11.914 13.5356C11.6271 13.6226 11.2982 13.6222 10.9173 13.6218C10.8897 13.6217 10.8617 13.6217 10.8335 13.6217L10.4028 13.6217C10.3394 13.6217 10.2849 13.6217 10.2353 13.6193C9.20792 13.5688 8.38635 12.7472 8.33587 11.7198C8.33344 11.6703 8.33345 11.6158 8.33346 11.5523L8.33346 9.6217C8.33346 8.70123 7.58727 7.95504 6.6668 7.95504C5.74632 7.95504 5.00013 8.70123 5.00013 9.6217L5.00013 11.5524C5.00014 11.6158 5.00016 11.6703 4.99772 11.7198C4.94725 12.7472 4.12567 13.5688 3.09827 13.6193C3.04871 13.6217 2.9942 13.6217 2.93076 13.6217L2.50013 13.6217C2.47189 13.6217 2.44393 13.6217 2.41625 13.6218C2.0354 13.6222 1.70646 13.6226 1.41956 13.5356C0.780358 13.3417 0.28015 12.8415 0.0862497 12.2023C-0.00077938 11.9154 -0.000388456 11.5864 6.42215e-05 11.2056C9.71232e-05 11.1779 0.000130343 11.1499 0.000130343 11.1217V6.70846C0.000130343 6.67811 0.00012025 6.64817 0.000110316 6.61863C-0.00011793 5.93948 -0.00027592 5.46966 0.123509 5.02743C0.232799 4.63698 0.412406 4.26975 0.653509 3.94377C0.926588 3.57455 1.29754 3.28623 1.83377 2.86946C1.85709 2.85133 1.88073 2.83296 1.90469 2.81432L3.63802 1.46617C3.67638 1.43634 3.71419 1.40691 3.75147 1.37788C4.57746 0.734791 5.14678 0.291533 5.79564 0.11585Z" fill="white"/>
</svg>
