<svg width="16" height="16" viewBox="0 0 16 16" fill="none" xmlns="http://www.w3.org/2000/svg">
<path fill-rule="evenodd" clip-rule="evenodd" d="M5.66732 1.94857C5.11503 1.94857 4.66732 2.39628 4.66732 2.94857V13.0527C4.66732 13.605 5.11503 14.0527 5.66732 14.0527H10.334C10.8863 14.0527 11.334 13.605 11.334 13.0527V2.94857C11.334 2.39628 10.8863 1.94857 10.334 1.94857H10.2784L10.116 2.3382C10.0125 2.58661 9.76977 2.74842 9.50065 2.74842H6.50065C6.23153 2.74842 5.98881 2.58661 5.88528 2.3382L5.72291 1.94857H5.66732ZM3.33398 2.94857C3.33398 1.6599 4.37865 0.615234 5.66732 0.615234H10.334C11.6226 0.615234 12.6673 1.6599 12.6673 2.94857V13.0527C12.6673 14.3414 11.6226 15.3861 10.334 15.3861H5.66732C4.37865 15.3861 3.33398 14.3414 3.33398 13.0527V2.94857Z" fill="white"/>
</svg>
