<svg width="186" height="427" viewBox="0 0 186 427" fill="none" xmlns="http://www.w3.org/2000/svg">
<g opacity="0.4">
<path d="M371.256 319.49C364.396 350.674 346.255 377.625 316.785 400.345C302.087 411.676 286.425 417.437 269.789 417.656C253.146 417.875 235.487 412.548 216.804 401.632C179.3 379.72 134.867 358.329 83.5085 337.457C57.8872 327.045 41.2206 314.102 33.3798 298.68C25.5514 283.283 26.4667 265.303 36.255 244.676C55.9112 203.252 76.0916 167.042 96.7945 136.043C117.433 105.139 150.352 82.9265 195.613 69.4357C240.787 55.9706 286.088 64.5099 331.551 95.1255C354.286 110.435 370.553 127.38 380.387 145.95C390.219 164.514 393.635 184.729 390.632 206.612C384.599 250.565 378.14 288.19 371.256 319.49Z" stroke="#00F0B5"/>
<path d="M345.41 303.499C339.856 328.784 325.149 350.636 301.24 369.057C289.323 378.239 276.626 382.902 263.14 383.074C249.647 383.246 235.321 378.923 220.156 370.062C189.689 352.26 153.596 334.879 111.881 317.918C91.0806 309.461 77.5663 298.96 71.2087 286.469C64.8637 274.001 65.5936 259.44 73.5266 242.717C89.4726 209.103 105.845 179.721 122.643 154.57C139.377 129.516 166.079 111.507 202.813 100.577C239.461 89.6718 276.221 96.6091 313.131 121.463C331.589 133.891 344.792 147.642 352.775 162.702C360.755 177.755 363.534 194.145 361.105 211.888C356.221 247.562 350.989 278.098 345.41 303.499Z" stroke="#00F0B5"/>
<path d="M329.466 293.634C324.708 315.295 312.108 334.019 291.619 349.805C281.412 357.669 270.54 361.661 258.994 361.808C247.441 361.955 235.171 358.253 222.176 350.66C196.049 335.394 165.099 320.49 129.329 305.947C111.502 298.698 99.9323 289.705 94.4924 279.016C89.065 268.352 89.6854 255.89 96.4811 241.565C110.152 212.746 124.189 187.557 138.589 165.995C152.925 144.53 175.805 129.097 207.29 119.728C238.689 110.385 270.186 116.328 301.819 137.628C317.638 148.28 328.949 160.061 335.787 172.96C342.622 185.854 345.003 199.892 342.922 215.091C338.735 245.677 334.249 271.858 329.466 293.634Z" stroke="#00F0B5"/>
</g>
</svg>
