<svg xmlns="http://www.w3.org/2000/svg" width="16" height="16" fill="none">
  <path d="M13.333 11.467V13.6c0 .293-.104.573-.29.796l-.018.02a1.42 1.42 0 0 1-.774.45A13.142 13.142 0 0 1 1.282 1.749a1.42 1.42 0 0 1 .45-.774l.02-.018c.223-.186.503-.29.796-.29h2.133c.298 0 .582.118.792.327l.02.02c.209.21.326.494.326.791 0 .557.442 1.008.986 1.008.545 0 .987-.451.987-1.008 0-.297.117-.582.326-.792l.02-.02c.21-.208.494-.326.792-.326H12.1c.298 0 .582.118.792.327l.02.02c.209.21.326.494.326.791 0 .557.442 1.008.987 1.008.545 0 .987-.451.987-1.008 0-.297.117-.582.327-.792l.019-.02c.21-.208.494-.326.792-.326Z" stroke="#fff" stroke-width="1.5" stroke-linecap="round" stroke-linejoin="round"/>
</svg>