<svg width="156" height="24" viewBox="0 0 156 24" fill="none" xmlns="http://www.w3.org/2000/svg">
<g clip-path="url(#clip0_2323_389)">
<g opacity="0.6">
<path d="M17.5628 1.00458L14.7856 1C11.6654 1 9.64903 3.12509 9.64903 6.41423V8.91055H6.85662C6.61532 8.91055 6.41992 9.1115 6.41992 9.35937V12.9763C6.41992 13.2241 6.61554 13.4249 6.85662 13.4249H9.64903V22.5514C9.64903 22.7993 9.84443 23 10.0857 23H13.729C13.9703 23 14.1657 22.799 14.1657 22.5514V13.4249H17.4307C17.672 13.4249 17.8674 13.2241 17.8674 12.9763L17.8688 9.35937C17.8688 9.24036 17.8226 9.12638 17.7409 9.04215C17.6591 8.95793 17.5477 8.91055 17.4318 8.91055H14.1657V6.79439C14.1657 5.77727 14.4017 5.26094 15.6915 5.26094L17.5624 5.26025C17.8035 5.26025 17.9989 5.0593 17.9989 4.81166V1.45317C17.9989 1.20576 17.8037 1.00504 17.5628 1.00458Z" fill="white"/>
</g>
<g opacity="0.6">
<path d="M65.995 22L66 21.9992V14.6642C66 11.0758 65.2275 8.31167 61.0325 8.31167C59.0158 8.31167 57.6625 9.41833 57.11 10.4675H57.0517V8.64667H53.0742V21.9992H57.2158V15.3875C57.2158 13.6467 57.5458 11.9633 59.7017 11.9633C61.8258 11.9633 61.8575 13.95 61.8575 15.4992V22H65.995Z" fill="white"/>
<path d="M46.33 8.6475H50.4767V22H46.33V8.6475Z" fill="white"/>
<path d="M48.4017 2C47.0758 2 46 3.07583 46 4.40167C46 5.7275 47.0758 6.82583 48.4017 6.82583C49.7275 6.82583 50.8033 5.7275 50.8033 4.40167C50.8025 3.07583 49.7267 2 48.4017 2Z" fill="white"/>
</g>
<g opacity="0.6">
<path d="M110.5 5.77233C109.727 6.10027 108.898 6.32267 108.026 6.42196C108.916 5.91181 109.597 5.10263 109.92 4.1414C109.085 4.61383 108.164 4.95688 107.183 5.14285C106.397 4.33994 105.279 3.83984 104.038 3.83984C101.659 3.83984 99.7303 5.68691 99.7303 7.9637C99.7303 8.2866 99.7683 8.60199 99.8418 8.90357C96.262 8.73141 93.0877 7.08917 90.9631 4.59372C90.5918 5.20189 90.3805 5.91053 90.3805 6.66697C90.3805 8.09814 91.1416 9.36093 92.2964 10.0997C91.5904 10.0771 90.9264 9.89116 90.3451 9.58205V9.63357C90.3451 11.6314 91.8306 13.2988 93.8002 13.6783C93.4394 13.7713 93.0588 13.8228 92.6651 13.8228C92.387 13.8228 92.1179 13.7964 91.8542 13.7461C92.4027 15.3859 93.9931 16.5783 95.8776 16.611C94.4039 17.7167 92.5457 18.3739 90.5275 18.3739C90.1798 18.3739 89.8372 18.3537 89.5 18.3173C91.4067 19.4896 93.6704 20.1732 96.1033 20.1732C104.028 20.1732 108.36 13.8881 108.36 8.43741L108.345 7.90341C109.192 7.32537 109.924 6.59912 110.5 5.77233Z" fill="white"/>
</g>
<g opacity="0.6">
<path d="M153.98 7.88005C153.934 6.81738 153.762 6.0868 153.516 5.45374C153.262 4.78176 152.871 4.18014 152.359 3.68002C151.859 3.1721 151.253 2.77743 150.589 2.52745C149.952 2.28127 149.226 2.10943 148.163 2.06257C147.092 2.01175 146.752 2 144.037 2C141.322 2 140.982 2.01175 139.915 2.05861C138.853 2.10546 138.122 2.27746 137.489 2.52348C136.817 2.77743 136.215 3.16814 135.715 3.68002C135.207 4.18014 134.813 4.78573 134.563 5.44992C134.316 6.0868 134.145 6.81341 134.098 7.87609C134.047 8.9467 134.035 9.28658 134.035 12.002C134.035 14.7173 134.047 15.0572 134.094 16.1239C134.141 17.1865 134.313 17.9171 134.559 18.5502C134.813 19.2221 135.207 19.8238 135.715 20.3239C136.215 20.8318 136.821 21.2265 137.485 21.4765C138.122 21.7226 138.849 21.8945 139.911 21.9413C140.978 21.9883 141.318 21.9999 144.033 21.9999C146.749 21.9999 147.089 21.9883 148.155 21.9413C149.218 21.8945 149.948 21.7226 150.581 21.4765C151.925 20.9568 152.988 19.8941 153.508 18.5502C153.754 17.9133 153.926 17.1865 153.973 16.1239C154.019 15.0572 154.031 14.7173 154.031 12.002C154.031 9.28658 154.027 8.9467 153.98 7.88005ZM152.179 16.0457C152.136 17.0225 151.972 17.5499 151.836 17.9015C151.499 18.7728 150.808 19.4643 149.937 19.8004C149.585 19.9372 149.054 20.1012 148.081 20.1441C147.026 20.1911 146.71 20.2027 144.041 20.2027C141.373 20.2027 141.052 20.1911 140.001 20.1441C139.024 20.1012 138.497 19.9372 138.145 19.8004C137.712 19.6402 137.317 19.3862 136.997 19.0541C136.665 18.7298 136.411 18.3391 136.25 17.9055C136.114 17.5539 135.95 17.0225 135.907 16.0497C135.86 14.9948 135.848 14.6783 135.848 12.0097C135.848 9.34122 135.86 9.02087 135.907 7.96995C135.95 6.99319 136.114 6.46575 136.25 6.11412C136.411 5.68038 136.665 5.28586 137.001 4.96536C137.325 4.63327 137.716 4.37931 138.149 4.21921C138.501 4.08247 139.032 3.9184 140.005 3.87537C141.06 3.82851 141.377 3.81676 144.045 3.81676C146.717 3.81676 147.034 3.82851 148.085 3.87537C149.062 3.9184 149.589 4.08247 149.941 4.21921C150.374 4.37931 150.769 4.63327 151.089 4.96536C151.421 5.28967 151.675 5.68038 151.836 6.11412C151.972 6.46575 152.136 6.99701 152.179 7.96995C152.226 9.02484 152.238 9.34122 152.238 12.0097C152.238 14.6783 152.226 14.9908 152.179 16.0457Z" fill="white"/>
<path d="M144.037 6.86423C141.201 6.86423 138.899 9.1654 138.899 12.002C138.899 14.8385 141.201 17.1397 144.037 17.1397C146.874 17.1397 149.175 14.8385 149.175 12.002C149.175 9.1654 146.874 6.86423 144.037 6.86423ZM144.037 15.3347C142.197 15.3347 140.704 13.8422 140.704 12.002C140.704 10.1617 142.197 8.66924 144.037 8.66924C145.877 8.66924 147.37 10.1617 147.37 12.002C147.37 13.8422 145.877 15.3347 144.037 15.3347Z" fill="white"/>
<path d="M150.578 6.6611C150.578 7.32346 150.04 7.86053 149.378 7.86053C148.716 7.86053 148.179 7.32346 148.179 6.6611C148.179 5.99858 148.716 5.46167 149.378 5.46167C150.04 5.46167 150.578 5.99858 150.578 6.6611Z" fill="white"/>
</g>
</g>
<defs>
<clipPath id="clip0_2323_389">
<rect width="156" height="24" fill="white"/>
</clipPath>
</defs>
</svg>
